<?xml version="1.0" encoding="UTF-8" standalone="no"?>
<!-- Created with Inkscape (http://www.inkscape.org/) -->

<svg
   xmlns:dc="http://purl.org/dc/elements/1.1/"
   xmlns:cc="http://creativecommons.org/ns#"
   xmlns:rdf="http://www.w3.org/1999/02/22-rdf-syntax-ns#"
   xmlns:svg="http://www.w3.org/2000/svg"
   xmlns="http://www.w3.org/2000/svg"
   xmlns:sodipodi="http://sodipodi.sourceforge.net/DTD/sodipodi-0.dtd"
   xmlns:inkscape="http://www.inkscape.org/namespaces/inkscape"
   width="36.124443mm"
   height="36.124443mm"
   viewBox="0 0 128 127.99999"
   id="svg2"
   version="1.1"
   inkscape:version="0.91 r13725"
   sodipodi:docname="icon_project_create.svg">
  <defs
     id="defs4" />
  <sodipodi:namedview
     id="base"
     pagecolor="#ffffff"
     bordercolor="#666666"
     borderopacity="1.0"
     inkscape:pageopacity="0.0"
     inkscape:pageshadow="2"
     inkscape:zoom="3.959798"
     inkscape:cx="101.48405"
     inkscape:cy="65.76018"
     inkscape:document-units="px"
     inkscape:current-layer="layer1"
     showgrid="false"
     fit-margin-top="0"
     fit-margin-left="0"
     fit-margin-right="0"
     fit-margin-bottom="0"
     inkscape:window-width="1366"
     inkscape:window-height="709"
     inkscape:window-x="-8"
     inkscape:window-y="-8"
     inkscape:window-maximized="1" />
  <metadata
     id="metadata7">
    <rdf:RDF>
      <cc:Work
         rdf:about="">
        <dc:format>image/svg+xml</dc:format>
        <dc:type
           rdf:resource="http://purl.org/dc/dcmitype/StillImage" />
        <dc:title></dc:title>
      </cc:Work>
    </rdf:RDF>
  </metadata>
  <g
     inkscape:label="Layer 1"
     inkscape:groupmode="layer"
     id="layer1"
     transform="translate(0,-924.36217)">
    <g
       transform="matrix(1,0,0,1.3489035,-9.8489879,909.03352)"
       style="font-style:normal;font-weight:normal;font-size:40px;line-height:125%;font-family:sans-serif;letter-spacing:0px;word-spacing:0px;fill:#ffffff;fill-opacity:1;stroke:none;stroke-width:1px;stroke-linecap:butt;stroke-linejoin:miter;stroke-opacity:1"
       id="flowRoot4171" />
    <g
       transform="matrix(-1,0,0,1.3489035,137.76427,908.77935)"
       style="font-style:normal;font-weight:normal;font-size:40px;line-height:125%;font-family:sans-serif;letter-spacing:0px;word-spacing:0px;fill:#ffffff;fill-opacity:1;stroke:none;stroke-width:1px;stroke-linecap:butt;stroke-linejoin:miter;stroke-opacity:1"
       id="flowRoot4171-1" />
    <path
       id="path4207-2-7"
       style="opacity:0.66500005;fill:#adddda;fill-opacity:1;stroke:none;stroke-width:9;stroke-linecap:round;stroke-linejoin:miter;stroke-miterlimit:4;stroke-dasharray:none;stroke-dashoffset:0;stroke-opacity:1"
       d="m 39.540488,941.06991 -2.780455,5.18297 -2.137653,-5.47947 -5.788507,-1.04274 4.550713,-3.72628 -0.797039,-5.82742 4.950148,3.1765 5.295911,-2.5588 -1.491354,5.68946 4.070092,4.246 z m -17.705349,35.73415 -2.780454,5.18297 -2.137653,-5.47947 -5.788507,-1.04274 4.550713,-3.72628 -0.797039,-5.82742 4.950148,3.1765 5.29591,-2.5588 -1.491354,5.68946 4.070092,4.246 z m 1.499385,-20.01244 -4.483914,8.35835 -3.447296,-8.8365 -9.3348639,-1.68158 7.3387299,-6.0092 -1.285349,-9.39762 7.98288,5.1226 8.540475,-4.12646 -2.405039,9.17514 6.563653,6.84732 z m 29.951022,-21.35461 68.185294,0 0,110.86429 -88.640884,0 0,-89.01971 z" />
  </g>
</svg>
