<?xml version="1.0" encoding="UTF-8" standalone="no"?>
<svg
   xmlns:dc="http://purl.org/dc/elements/1.1/"
   xmlns:cc="http://creativecommons.org/ns#"
   xmlns:rdf="http://www.w3.org/1999/02/22-rdf-syntax-ns#"
   xmlns:svg="http://www.w3.org/2000/svg"
   xmlns="http://www.w3.org/2000/svg"
   id="svg8"
   version="1.1"
   viewBox="0 0 26.722873 26.738097"
   height="101.05737"
   width="100.99983">
  <defs
     id="defs2" />
  <metadata
     id="metadata5">
    <rdf:RDF>
      <cc:Work
         rdf:about="">
        <dc:format>image/svg+xml</dc:format>
        <dc:type
           rdf:resource="http://purl.org/dc/dcmitype/StillImage" />
        <dc:title></dc:title>
      </cc:Work>
    </rdf:RDF>
  </metadata>
  <g
     transform="translate(-47.538206,-98.743294)"
     id="layer1">
    <path
       id="OuterRotary"
       d="m 62.508133,98.890754 -0.271382,2.224156 a 11.07417,11.115408 0 0 1 9.782541,11.0316 11.07417,11.115408 0 0 1 -0.794015,4.10791 l 1.941581,0.78679 c 1.53963,-3.82795 1.217929,-8.15691 -0.870455,-11.71324 -2.088452,-3.55628 -5.70598,-5.935334 -9.78827,-6.437216 z m -3.453336,0.03122 c -4.072626,0.575676 -7.646845,3.019826 -9.671076,6.613346 -2.024217,3.5935 -2.268184,7.92755 -0.660124,11.72704 l 2.003943,-0.85448 a 11.07417,11.115408 0 0 1 -0.856705,-4.26136 11.07417,11.115408 0 0 1 9.497411,-10.99069 z m 10.745476,19.876656 a 11.07417,11.115408 0 0 1 -8.855127,4.46344 11.07417,11.115408 0 0 1 -8.772797,-4.34351 l -1.695077,1.3301 c 2.533,3.25226 6.428914,5.13707 10.54153,5.0999 4.112678,-0.0372 7.974182,-1.9922 10.448395,-5.28982 z"
       style="opacity:1;fill:#001717;fill-opacity:1;stroke:#00ffff;stroke-width:0.26458335;stroke-miterlimit:4;stroke-dasharray:none;stroke-dashoffset:0;stroke-opacity:1" />
    <path
       id="InnerRotary"
       d="m 62.115795,101.64081 -0.215917,1.7696 a 8.8108558,8.8436662 0 0 1 7.78321,8.77698 8.8108558,8.8436662 0 0 1 -0.631741,3.26835 l 1.544768,0.62598 c 1.224966,-3.0456 0.96901,-6.48981 -0.692553,-9.31931 -1.661619,-2.82946 -4.539808,-4.72229 -7.787767,-5.1216 z m -2.74755,0.0248 c -3.240271,0.45802 -6.084,2.40264 -7.694523,5.26172 -1.610512,2.85906 -1.804617,6.30733 -0.525209,9.33029 l 1.594382,-0.67984 a 8.8108558,8.8436662 0 0 1 -0.681614,-3.39043 8.8108558,8.8436662 0 0 1 7.556351,-8.74444 z m 8.549342,15.81431 a 8.8108558,8.8436662 0 0 1 -7.045338,3.55121 8.8108558,8.8436662 0 0 1 -6.979832,-3.45579 l -1.348641,1.05825 c 2.015311,2.58758 5.114986,4.08717 8.387075,4.0576 3.272137,-0.0296 6.344435,-1.58504 8.312977,-4.2087 z"
       style="fill:#000000;fill-opacity:1;stroke:#ffab1a;stroke-width:0.26458335;stroke-miterlimit:4;stroke-dasharray:none;stroke-dashoffset:0;stroke-opacity:1;opacity:1" />
  </g>
</svg>
