<?xml version="1.0" encoding="UTF-8" standalone="no"?>
<svg
   xmlns:dc="http://purl.org/dc/elements/1.1/"
   xmlns:cc="http://creativecommons.org/ns#"
   xmlns:rdf="http://www.w3.org/1999/02/22-rdf-syntax-ns#"
   xmlns:svg="http://www.w3.org/2000/svg"
   xmlns="http://www.w3.org/2000/svg"
   version="1.1"
   id="svg2"
   viewBox="0 0 128 127.99999"
   height="36.124443mm"
   width="36.124443mm">
  <defs
     id="defs4" />
  <metadata
     id="metadata7">
    <rdf:RDF>
      <cc:Work
         rdf:about="">
        <dc:format>image/svg+xml</dc:format>
        <dc:type
           rdf:resource="http://purl.org/dc/dcmitype/StillImage" />
        <dc:title></dc:title>
      </cc:Work>
    </rdf:RDF>
  </metadata>
  <g
     transform="translate(0,-924.36218)"
     id="layer1">
    <g
       transform="matrix(1.3201566,0,0,1.3201566,-146.16649,495.37941)"
       id="g3388">
      <path
         id="path3377"
         d="m 159.01687,405.41677 15.41369,3.71647 -15.93191,5.91969 -13.87472,-6.43218 z"
         style="fill:#45a6a0" />
      <path
         id="path3375"
         d="m 138.07143,414.37257 c -19.57836,-4.35034 -22,-5.18139 -22,-7.5499 0,-0.9096 6.84515,-10.14425 15.21144,-20.52144 11.41243,-14.15548 15.76048,-18.86761 17.40981,-18.86761 1.46829,0 4.83893,2.8223 10.14956,8.49842 l 7.95119,8.49843 4.54245,-3.99843 c 2.49835,-2.19913 5.3849,-3.99842 6.41457,-3.99842 2.15405,0 25.6415,26.06953 26.13166,29.00443 0.17088,1.02314 -0.50628,2.29748 -1.50481,2.83187 -2.95011,1.57885 -40.13798,10.1714 -43.61437,10.07744 -1.75532,-0.0474 -11.0665,-1.8361 -20.6915,-3.97479 z m 26.5,-2.27359 c 3.0743,-0.79689 5,-1.84859 5,-2.73071 0,-1.15511 -2.04589,-1.43465 -10.5,-1.43465 -8.49344,0 -10.5,0.27639 -10.5,1.44631 0,1.20862 3.55014,2.53252 10.5,3.91561 0.275,0.0547 2.75,-0.48372 5.5,-1.19656 z m 1,-11.51387 c 3.33197,-0.44869 0.32953,-0.69358 -9,-0.73408 -7.7,-0.0334 -16.7,-0.40945 -20,-0.8356 -3.3,-0.42615 -5.69506,-0.46395 -5.32236,-0.084 1.55423,1.58443 26.06628,2.76545 34.32236,1.65368 z m 21,-1.17785 c 1.81963,-0.479 0.2458,-0.57538 -4,-0.24496 -3.85,0.29963 -7.1875,0.70825 -7.41667,0.90805 -0.76627,0.66808 8.37727,0.13701 11.41667,-0.66309 z m -33.96788,-13.42261 c 1.90733,-0.79694 3.46788,-1.83366 3.46788,-2.30384 0,-0.47017 -1.61335,-2.40563 -3.58522,-4.30102 l -3.58521,-3.44617 -2.91479,3.46223 c -1.60313,1.90422 -2.91478,4.00422 -2.91478,4.66666 0,0.94698 2.5114,2.37689 5.78212,3.29216 0.15516,0.0434 1.84266,-0.57309 3.75,-1.37002 z m 26.46788,-23.35103 c 0,-5.65691 8.54522,-30.18097 13.02361,-30.18097 4.11941,0 -3.14994,24.21178 -7.00159,30.28519 -3.96952,6.25929 -6.02202,6.22377 -6.02202,-0.10422 z"
         style="fill:#6d6d6d" />
      <path
         id="path3373"
         d="m 138.23471,412.95936 c -10.6352,-2.36455 -19.81446,-4.77692 -20.39836,-5.36082 -0.74886,-0.74886 3.46373,-6.67473 14.29816,-20.11328 8.44789,-10.4784 15.89906,-19.05164 16.55817,-19.05164 0.6591,0 4.77706,3.825 9.15103,8.5 4.37397,4.675 8.4012,8.5 8.94941,8.5 0.5482,0 3.04164,-1.8 5.54097,-4 2.49933,-2.2 4.93669,-4 5.41636,-4 0.88896,0 24.55089,26.40059 25.14953,28.06037 0.1807,0.50101 -0.7193,1.35385 -2,1.8952 -2.80906,1.18738 -40.44671,10.08108 -42.13705,9.95689 -0.65532,-0.0481 -9.89303,-2.02217 -20.52822,-4.38672 z m 26.33672,-0.86038 c 3.0743,-0.79689 5,-1.8486 5,-2.73071 0,-1.15511 -2.04589,-1.43465 -10.5,-1.43465 -8.49344,0 -10.5,0.27639 -10.5,1.44631 0,1.20862 3.55014,2.53252 10.5,3.91561 0.275,0.0547 2.75,-0.48372 5.5,-1.19656 z m 14.75858,-12.09207 c 5.36722,-0.10475 10.19578,-0.62765 10.73014,-1.16201 0.62874,-0.62874 -0.96212,-3.18874 -4.50858,-7.25517 -3.01408,-3.45599 -5.48014,-6.65679 -5.48014,-7.11288 0,-2.08738 -3.18887,-1.69704 -5.95334,0.72874 -3.72657,3.27001 -3.75494,3.87931 -0.34626,7.4372 2.53019,2.64095 2.59438,2.92462 1.01843,4.50057 -1.57595,1.57595 -2.14008,1.2019 -8.9504,-5.93458 -3.99764,-4.18911 -9.01441,-9.67724 -11.14838,-12.19586 -2.13398,-2.51861 -4.66892,-4.5793 -5.63321,-4.5793 -0.96429,0 -3.26831,2.04236 -5.12005,4.53857 -1.85173,2.49621 -6.01004,7.91547 -9.24067,12.04279 -3.23063,4.12732 -5.66529,7.71281 -5.41034,7.96775 1.06552,1.06552 21.99776,2.26109 30.78422,1.75828 5.225,-0.29901 13.89136,-0.62935 19.25858,-0.7341 z"
         style="fill:#2cab52" />
      <path
         id="path3371"
         d="m 138.23471,412.95936 c -10.6352,-2.36455 -19.81446,-4.77692 -20.39836,-5.36082 -0.74886,-0.74886 3.46373,-6.67473 14.29816,-20.11328 8.44789,-10.4784 15.89906,-19.05164 16.55817,-19.05164 0.6591,0 4.77706,3.825 9.15103,8.5 4.37397,4.675 8.4012,8.5 8.94941,8.5 0.5482,0 3.04164,-1.8 5.54097,-4 2.49933,-2.2 4.93669,-4 5.41636,-4 0.88896,0 24.55089,26.40059 25.14953,28.06037 0.1807,0.50101 -0.7193,1.35385 -2,1.8952 -2.80906,1.18738 -40.44671,10.08108 -42.13705,9.95689 -0.65532,-0.0481 -9.89303,-2.02217 -20.52822,-4.38672 z M 177.51,409.07118 c 9.31621,-2.34793 17.11509,-4.79856 17.33085,-5.44582 0.21576,-0.64727 -3.0191,-5.0111 -7.18857,-9.69741 -4.16947,-4.6863 -7.58085,-8.91651 -7.58085,-9.40045 0,-2.13305 -3.15987,-1.77314 -5.95334,0.67809 -3.72657,3.27001 -3.75494,3.87931 -0.34626,7.4372 2.53019,2.64095 2.59438,2.92462 1.01843,4.50057 -1.57595,1.57595 -2.14008,1.2019 -8.9504,-5.93458 -3.99764,-4.18911 -9.01441,-9.67724 -11.14838,-12.19586 -2.13398,-2.51861 -4.66892,-4.5793 -5.63321,-4.5793 -0.96429,0 -3.26831,2.04253 -5.12005,4.53897 -1.85173,2.49643 -6.85429,8.96952 -11.11679,14.38465 -4.2625,5.41512 -7.75,10.33024 -7.75,10.92249 0,0.59224 1.6875,1.50172 3.75,2.02106 12.20007,3.072 28.96537,6.94531 30.25,6.9887 0.825,0.0279 9.12236,-1.87038 18.43857,-4.21831 z m 2.74641,-48.38756 c 0.33621,-4.69356 7.9608,-25.20928 11.65378,-25.51596 3.25903,-0.27064 -2.3797,21.48567 -4.63136,22.43263 -0.43592,0.18333 -1.82262,2.02083 -3.08155,4.08333 -3.09366,5.06832 -4.35267,4.74884 -3.94087,-1 z"
         style="fill:#111513" />
    </g>
  </g>
</svg>
