<?xml version="1.0" encoding="UTF-8" standalone="no"?>
<svg
   xmlns:dc="http://purl.org/dc/elements/1.1/"
   xmlns:cc="http://creativecommons.org/ns#"
   xmlns:rdf="http://www.w3.org/1999/02/22-rdf-syntax-ns#"
   xmlns:svg="http://www.w3.org/2000/svg"
   xmlns="http://www.w3.org/2000/svg"
   id="svg8"
   version="1.1"
   viewBox="0 0 102.38161 135.4866"
   height="135.4866mm"
   width="102.38161mm">
  <defs
     id="defs2" />
  <metadata
     id="metadata5">
    <rdf:RDF>
      <cc:Work
         rdf:about="">
        <dc:format>image/svg+xml</dc:format>
        <dc:type
           rdf:resource="http://purl.org/dc/dcmitype/StillImage" />
        <dc:title></dc:title>
      </cc:Work>
    </rdf:RDF>
  </metadata>
  <g
     transform="translate(-4.7009774,-5.0690132)"
     id="layer1">
    <path
       id="path1008"
       d="m 70.255583,5.0690133 c -0.121923,0 -0.24298,0.00771 -0.360701,0.020156 H 69.19725 69.064958 V 5.355303 c -0.04505,0.045048 -0.08169,0.094649 -0.10387,0.152445 -0.0883,0.2301822 -0.160713,9.576591 -0.160713,20.769791 v 3.030305 17.320908 l -4.828646,0.0062 c -2.65575,0.0035 -9.174427,0.116941 -14.485937,0.251667 -5.311511,0.134725 -13.185577,0.328668 -17.498155,0.430979 l -7.841382,0.186037 -0.5147,-1.165305 c -0.928589,-2.101812 -0.926742,-2.428517 0.02946,-6.394957 1.159651,-4.81034 2.480165,-8.306165 5.041554,-13.346989 1.812999,-3.567988 2.249913,-4.218389 3.848343,-5.726265 4.51321,-4.257535 12.599739,-8.371467 19.713009,-10.02833 1.81633,-0.423069 3.354162,-0.563047 6.482291,-0.591177 l 4.101042,-0.03721 2.513542,-1.4443549 c 1.38463,-0.795827 2.513541,-1.6196919 2.513541,-1.8345123 0,-1.0804128 -10.767136,-0.2132542 -19.711458,1.5874999 -9.56782,1.9262773 -15.551081,5.1795253 -19.62309,10.6706643 -1.858351,2.505993 -6.460651,11.613256 -7.447092,14.736053 -1.126469,3.566086 -1.780839,6.995867 -1.886188,9.889318 -0.122693,3.369448 -0.871937,10.530538 -1.189077,11.364682 -0.131498,0.345877 -0.65817,0.876475 -1.170469,1.178738 -0.512302,0.302262 -1.237787,1.012269 -1.612305,1.578199 -0.725101,1.095703 -1.467612,4.289243 -1.467612,6.312792 0,0.362392 -0.01479,0.622575 -0.05943,0.820105 -0.0027,0.0084 -0.005,0.02016 -0.0077,0.02842 -0.0291,0.08652 -0.06129,0.162933 -0.09457,0.235645 -0.09565,0.164428 -0.241778,0.272386 -0.47077,0.376722 -1.01782,0.463751 -1.305528,1.334291 -1.289328,3.899503 0.0044,0.701916 0.01623,1.258094 0.04444,1.707388 l -0.02532,0.698667 0.115755,0.115755 c 0.129804,0.711462 0.381161,1.010534 0.868161,1.329635 0.609502,0.39933 0.647137,0.563824 0.629936,2.763655 l -0.01809,2.339392 -2.575552,2.836519 C 8.1784384,84.384857 5.7112359,87.993131 5.224974,89.6809 5.163376,89.894686 5.1092744,90.235935 5.0616785,90.664819 l -0.1581309,0.281639 5.16e-4,0.07493 -0.074414,0.160197 -0.1286722,0.249597 0.046509,1.939933 0.031522,1.48208 c -0.00181,0.346292 -0.00261,0.70821 -0.00207,1.116727 0.00229,1.869355 0.022963,3.319293 0.1426263,4.544428 l 0.033589,1.39165 0.1353926,0.27853 c 0.014279,0.0907 0.0279,0.19224 0.043407,0.26717 0.5111406,2.46961 1.343824,3.55256 6.6703947,8.67544 l 4.277775,4.11448 c 0.02418,0.0311 0.05013,0.0639 0.07235,0.0935 l 1.325499,4.95215 c 2.03124,7.59148 3.224715,10.33606 5.686475,13.07414 2.944222,3.27468 8.322603,6.12283 12.827124,6.79287 h 5.16e-4 c 1.310484,0.19479 5.143561,0.34844 9.182386,0.36793 l 5.453414,0.0264 1.237133,0.007 10e-4,-0.001 0.242361,0.001 2.814299,-2.64583 c 1.547651,-1.45521 2.934284,-2.64583 3.081464,-2.64583 0.14718,0 0.979755,0.59531 1.850533,1.32291 l 1.583367,1.32292 h 2.983796 c 2.618092,0 3.069233,-0.0671 3.680913,-0.54829 l 0.697116,-0.54828 v 1.45262 c 0,0.88588 0.02423,1.42983 0.151929,1.76527 0.0031,0.0239 0.0062,0.0978 0.0093,0.10594 0.02276,0.0593 0.06062,0.10965 0.107487,0.15554 l 0.001,0.26303 h 0.128156 0.899686 0.02791 0.06356 0.06615 5.16e-4 0.793234 5.16e-4 0.132808 0.264067 v -0.26613 c 0.04506,-0.0451 0.08173,-0.0947 0.10387,-0.15244 0.0883,-0.23019 0.160198,-6.24284 0.160198,-13.36146 0,-7.11862 0.101372,-12.94288 0.224792,-12.94288 0.250428,0 0.982311,1.61757 1.204061,2.66133 0.24226,1.14031 1.302522,2.4714 2.395201,3.00654 0.956072,0.46823 1.219721,0.48325 3.304191,0.18448 2.64124,-0.37857 7.207316,-1.83774 8.700246,-2.78019 0.571418,-0.36072 1.306097,-0.99115 1.632458,-1.40095 0.557109,-0.69957 0.583583,-0.91491 0.432014,-3.5233 -0.158329,-2.72475 -0.146587,-2.80428 0.614434,-4.13049 1.079108,-1.88049 3.708675,-4.42793 5.449795,-5.27978 1.314011,-0.64289 1.612892,-0.6921 2.973461,-0.49041 2.554871,0.37874 4.369261,0.29451 5.185731,-0.24082 0.44835,-0.29396 1.10691,-1.26016 1.67587,-2.458247 0.83689,-1.762238 0.97907,-2.390931 1.32653,-5.865791 0.33024,-3.30286 0.33486,-4.112011 0.0315,-5.346959 l -0.0873,-0.354502 c -0.0222,-0.114062 -0.0451,-0.223039 -0.0734,-0.300239 l -0.19689,-0.800467 -2.35696,-1.190625 c -2.11274,-1.06711 -2.43572,-1.330664 -3.11144,-2.538865 -1.050798,-1.87887 -1.892498,-5.364361 -1.754928,-7.266223 0.09551,-1.320369 0.266719,-1.721702 1.285708,-3.014803 1.80604,-2.291868 2.09813,-2.841212 2.10013,-3.94136 0.002,-1.669254 -0.7352,-2.79114 -3.952213,-6.012037 -3.915569,-3.920318 -5.770324,-4.829816 -8.067725,-3.956347 -0.459378,0.174657 -0.679027,0.169035 -0.679027,-0.01757 0,-0.15163 -0.297659,-0.666112 -0.661458,-1.143082 -1.192199,-1.563063 -0.678326,-3.742838 1.190625,-5.050856 0.783511,-0.548357 1.218007,-1.05969 1.270206,-1.495515 0.110469,-0.921959 -0.94955,-3.631554 -1.723408,-4.405415 -0.542092,-0.542094 -0.805807,-0.616368 -1.687238,-0.475425 -2.040318,0.326261 -3.944977,-1.375095 -3.944977,-3.524332 0,-1.426916 -0.381124,-1.909564 -1.852083,-2.34456 -2.659311,-0.786413 -3.897619,-0.557998 -4.63486,0.854213 -1.10242,2.11174 -3.436818,2.867564 -5.242057,1.697569 l -0.964282,-0.624766 -0.0031,-18.1684 C 71.712063,14.10185 71.638353,5.7377092 71.550049,5.507527 71.530509,5.456613 71.492209,5.411602 71.446179,5.3695494 V 5.0891692 h -0.396875 -0.433049 c -0.117721,-0.012443 -0.238778,-0.020156 -0.360701,-0.020156 z m 9.835576,36.5579757 c 0.202647,0.0033 0.461642,0.02895 0.807185,0.06304 1.802821,0.17788 1.924947,0.275532 1.924947,1.538407 0,2.12281 2.571705,4.575101 4.833813,4.609023 1.492592,0.02238 1.69549,0.187203 2.170412,1.765266 l 0.360701,1.198893 -0.970484,0.625284 c -1.18396,0.763209 -1.884561,2.122665 -2.082559,4.041098 -0.12832,1.24333 -0.05099,1.611741 0.551386,2.639631 l 0.699699,1.194761 -0.824238,0.938961 c -0.844841,0.962213 -1.797714,1.20763 -2.622063,0.674894 -0.218279,-0.141065 -0.865129,-0.25835 -1.437637,-0.260451 l -1.041281,-0.0041 1.238168,-1.238168 c 2.132798,-2.132799 2.84435,-5.266452 1.8557,-8.173662 -0.603041,-1.773298 -2.923572,-4.093832 -4.69687,-4.69687 -2.839802,-0.965721 -5.881002,-0.345578 -8.172111,1.666047 l -0.975136,0.855763 v -2.415358 -2.415354 l 0.780831,0.403592 c 1.958231,1.012632 5.473911,-0.106495 6.495211,-2.067576 0.396849,-0.762023 0.496385,-0.952984 1.104326,-0.943094 z m -2.318721,6.328297 c 1.34706,-0.02802 2.818254,0.289081 3.694864,0.869195 1.697651,1.123453 2.514584,2.570811 2.632913,4.664832 0.152932,2.706608 -1.044336,4.869381 -3.250445,5.871477 -1.430071,0.649589 -1.95598,0.619953 -3.123841,-0.173633 -1.01388,-0.688951 -1.849784,-2.023385 -2.155425,-3.441133 -0.28489,-1.321478 -1.126884,-2.44764 -2.263944,-3.027723 l -1.070735,-0.546219 0.515731,-1.01079 c 0.651238,-1.276546 2.067359,-2.529866 3.328477,-2.946075 0.493366,-0.162824 1.080103,-0.247197 1.692405,-0.259931 z m -9.41338,2.833417 c 0.441211,-0.0841 0.56588,1.638565 0.12764,1.763718 -0.191198,0.0546 -0.824034,0.235265 -1.406115,0.401526 -0.277926,0.07938 -1.380905,0.144354 -3.430799,0.196369 -0.0564,0.0014 -0.130641,0.0027 -0.1881,0.0041 -3.486118,0.08503 -9.581335,0.135798 -18.93683,0.161748 l -21.497395,0.05943 v -0.859896 -0.859896 l 5.357812,-5.18e-4 c 5.09284,-4.1e-4 39.322568,-0.742482 39.973787,-0.866614 z m -5.10408,6.456971 c 0.514559,0.0015 1.049134,0.0076 1.576647,0.0186 l 3.827155,0.0801 c 0.0032,0.02195 0.0068,0.03755 0.0098,0.06149 l 0.06821,11.39207 0.04237,7.011974 c -0.02259,2.541135 -0.06808,3.982534 -0.159163,4.834847 l -0.481623,1.018027 c -0.65132,1.376778 -0.695709,1.412137 -1.812809,1.434536 -1.211191,0.02431 -5.260139,1.382054 -7.488949,2.511476 -1.192699,0.60439 -3.000851,2.27412 -3.000851,2.770888 0,0.106021 -0.56863,0.327417 -1.263489,0.492477 -1.2245,0.29087 -10.420061,5.28846 -12.169283,6.613552 -1.204071,0.912108 -1.701188,1.764924 -1.701188,2.918684 0,1.24255 0.774408,1.934765 2.164209,1.934765 1.817111,0 5.578973,-0.793797 6.875031,-1.450556 0.703101,-0.35629 2.377729,-1.061537 3.721738,-1.567347 2.386671,-0.89821 3.79944,-1.877999 4.107759,-2.849438 0.104841,-0.330332 0.411679,-0.482658 0.973069,-0.482658 0.45108,0 2.139961,-0.348287 3.752741,-0.773597 1.612781,-0.425309 3.450646,-0.854546 4.084506,-0.953947 0.633849,-0.09941 1.377995,-0.405963 1.653645,-0.681611 0.275651,-0.275651 0.560753,-0.501262 0.633553,-0.501262 0.04248,0 0.0786,1.359467 0.102836,3.334163 0.0079,1.173642 0.01324,2.517915 0.01602,4.387845 l 0.01292,8.946738 h -0.760677 c -0.869701,0 -1.265108,0.37449 -1.396299,1.32292 -0.08013,0.57924 -0.256844,0.68181 -1.423686,0.82424 -2.062628,0.25177 -2.40593,0.42597 -4.43952,2.25619 -2.23334,2.01 -2.585302,2.6198 -3.430284,5.94744 -0.426817,1.68088 -0.912079,2.88378 -1.480528,3.66851 -0.465159,0.64213 -0.976615,1.68638 -1.136365,2.32079 l -0.290422,1.15341 -0.696082,-0.66662 c -0.38281,-0.36674 -1.201417,-0.84541 -1.819526,-1.0635 -0.618109,-0.21808 -2.486385,-0.99964 -4.151686,-1.73685 -3.52257,-1.55938 -5.316998,-1.95589 -8.127669,-1.79627 -0.413192,0.0235 -0.833996,0.0793 -1.253151,0.15865 l -0.329698,-0.0119 -0.305405,0.1509 c -1.806493,0.45506 -3.488865,1.35989 -4.26434,2.3766 -1.307441,1.71414 -1.418789,4.84638 -0.252698,7.11533 0.901088,1.75332 2.625243,4.07832 4.027143,5.43067 1.266952,1.22216 1.364295,1.38671 0.809255,1.36891 -1.237692,-0.0397 -4.113454,-1.04337 -6.807854,-2.37608 -3.903731,-1.93089 -5.937776,-3.97057 -7.241937,-7.26106 -0.814099,-2.05405 -2.063792,-6.17237 -3.792532,-12.49794 -0.437949,-1.60251 -0.543441,-1.73277 -3.65869,-4.53409 -4.626422,-4.16021 -6.6892882,-6.38859 -7.4476078,-8.04499 C 7.2181121,97.677594 7.7990233,92.55888 10.673666,88.251 c 0.661558,-0.991402 2.235006,-2.933568 3.496426,-4.316015 3.193748,-3.500152 3.234986,-3.611743 2.891295,-7.820713 -0.04494,-0.550328 -0.0951,-1.072216 -0.146759,-1.564246 -0.0065,-0.474874 -0.06354,-0.940562 -0.159681,-1.326015 -0.06835,-0.494183 -0.132488,-0.877922 -0.177766,-0.975651 -0.125971,-0.271912 -0.03651,-0.698601 0.233058,-1.110012 0.327451,-0.499689 0.424807,-1.188995 0.385509,-2.733167 -0.02894,-1.135808 0.08439,-2.815105 0.251664,-3.731553 0.167179,-0.916451 0.240281,-1.76851 0.162779,-1.893941 -0.04189,-0.06778 -0.05413,-0.165526 -0.04496,-0.283189 0.02159,-0.113225 0.04322,-0.217569 0.06666,-0.325561 0.254437,-0.839224 1.162643,-2.20185 2.046904,-2.926435 1.25399,-1.027549 2.913504,-1.498118 5.295283,-1.501717 0.868601,-0.0013 0.992058,0.06737 0.829408,0.461471 -0.51077,1.237607 -0.614746,2.458542 -0.363286,4.270023 0.320612,2.309619 1.355476,6.007719 2.076876,7.421769 1.576149,3.089521 3.969057,4.258595 7.019727,3.429764 1.847799,-0.50202 20.658296,-10.120569 22.560896,-11.536246 1.246251,-0.927306 1.692404,-1.743429 1.692404,-3.096453 v -1.190625 l 1.102776,-0.159163 c 0.454752,-0.06559 1.818388,-0.102116 3.362068,-0.09767 z m 8.455813,1.489832 1.89756,1.79007 c 3.09593,2.92054 7.07345,4.453498 11.59619,4.468979 2.730529,0.0093 3.83244,-0.369795 5.81515,-1.999361 0.506101,-0.415954 1.139545,-0.756026 1.407666,-0.756026 0.554699,0 6.174499,5.36498 6.415629,6.124689 0.110041,0.346721 -0.177022,0.877221 -0.946713,1.750282 -1.916359,2.173711 -2.220182,3.002833 -2.206583,6.015654 0.01381,3.062359 0.503463,5.233427 1.800924,7.980908 1.1172,2.365758 2.557916,3.784822 4.815726,4.744413 l 1.75131,0.74414 -0.14572,1.732196 c -0.13401,1.594559 -1.45142,6.26042 -2.01332,7.13083 -0.20321,0.31478 -0.48733,0.319492 -1.84433,0.03152 -3.55796,-0.755059 -6.387766,0.303443 -9.945644,3.71916 -1.77877,1.70767 -2.485658,2.61384 -3.257167,4.17545 -0.94611,1.91492 -0.983361,2.09544 -0.938961,4.51807 0.0262,1.42841 -0.07336,2.66665 -0.228925,2.85409 -0.151141,0.18212 -1.414069,0.69652 -2.806547,1.14257 -2.6612,0.85245 -5.691132,1.29283 -5.955194,0.86558 -0.08517,-0.13782 -0.415631,-0.94761 -0.734322,-1.79938 -0.6164,-1.64749 -2.113126,-3.48112 -3.582725,-4.38939 l -0.894004,-0.55294 v -8.21139 -8.210865 l 0.727605,0.180351 c 3.24092,0.804769 6.041699,0.184078 8.068759,-1.788523 3.23596,-3.149031 3.299399,-7.992599 0.146759,-11.213269 -2.223809,-2.2718 -5.604872,-2.991334 -8.480102,-1.804024 -0.43602,0.180059 -0.463021,-0.374685 -0.463021,-9.526035 z m -22.626526,0.790133 c 1.519079,-0.008 2.525115,0.01403 2.599844,0.077 0.117549,0.09905 -3.953941,2.28046 -9.047512,4.847768 -5.09357,2.56731 -9.503124,4.667932 -9.798883,4.667932 -0.966941,0 -2.123498,-2.396469 -2.838588,-5.881296 -0.31914,-1.555295 -0.386696,-2.397104 -0.206705,-2.577102 0.14701,-0.147011 1.512697,-0.396825 3.034956,-0.555006 2.522175,-0.262088 11.699652,-0.55526 16.256888,-0.579292 z M 25.022168,73.616252 c -1.672669,0 -2.292008,0.795737 -2.461347,3.162596 -0.07338,1.02548 -0.16252,1.864487 -0.197922,1.864487 -0.03543,0 -0.46582,-0.165153 -0.956529,-0.366903 -1.009991,-0.41524 -1.909154,-0.199406 -2.292885,0.550354 -0.435329,0.850588 -0.56711,2.128343 -0.311091,3.021002 0.243051,0.847482 0.199141,0.917888 -1.579748,2.541448 -1.006441,0.918561 -2.07659,2.069536 -2.378149,2.557467 -0.643681,1.041501 -0.717936,2.603389 -0.146246,3.077848 0.348091,0.288891 0.201642,0.5441 -1.08934,1.89756 l -1.490863,1.563211 0.11317,1.57148 c 0.133162,1.840949 0.898472,2.901116 2.093412,2.901116 0.781082,0 0.977604,0.341802 0.989606,1.719792 0.0038,0.43656 0.311242,1.32953 0.683162,1.98437 0.371919,0.65485 0.905396,1.68374 1.185457,2.28617 0.280049,0.60243 0.638257,1.17487 0.795817,1.27227 0.157559,0.0974 0.286287,0.40795 0.286287,0.6904 0,0.28245 0.238117,0.75179 0.529166,1.04283 0.998742,0.99874 2.028145,0.7095 5.046205,-1.418 1.519209,-1.07093 2.925096,-2.25181 3.124356,-2.62413 0.47529,-0.88799 0.460253,-1.94915 -0.03566,-2.51509 -0.218922,-0.24984 -0.595569,-0.811427 -0.83716,-1.247987 C 25.850277,98.711983 25.365489,97.878538 25.01493,97.29646 24.664381,96.714368 24.245132,95.940468 24.083205,95.576668 23.921274,95.212858 23.461622,94.55802 23.061561,94.12146 22.66149,93.684889 21.87971,92.434744 21.324199,91.343335 20.76869,90.251934 20.144316,89.260154 19.936687,89.139334 c -0.3023,-0.175921 -0.188381,-0.450707 0.572058,-1.378727 1.3204,-1.611371 1.79302,-2.818993 1.453142,-3.712951 -0.190151,-0.500041 -0.180174,-0.812546 0.0341,-1.070737 0.497052,-0.598908 0.766879,-0.418412 0.766879,0.513149 0,1.391298 0.752052,3.56081 1.389063,4.00699 1.148321,0.804309 2.887633,0.22108 3.663341,-1.228349 0.795872,-1.48703 0.783746,-7.267565 -0.0217,-10.258806 -0.407509,-1.513359 -1.426877,-2.393651 -2.771408,-2.393651 z m 50.186084,5.69474 c 1.011942,0.01901 2.037774,0.21212 2.720248,0.573093 2.556819,1.35236 3.737417,4.065183 3.038057,6.980452 -0.42054,1.75301 -2.252258,3.754199 -3.831807,4.186309 -1.799019,0.492159 -4.115327,0.255624 -5.044136,-0.515215 -0.30566,-0.253648 -0.379823,-1.291342 -0.379823,-5.303552 V 80.24427 l 0.859896,-0.460954 c 0.627571,-0.336375 1.625624,-0.491329 2.637565,-0.472324 z m -8.000544,7.997963 c 0.375176,0.01721 0.521424,0.231968 0.530201,0.660942 0.0022,0.109099 -0.740013,0.1894 -1.649513,0.1788 l -1.653646,-0.01912 1.439188,-0.510564 c 0.611915,-0.217159 1.041966,-0.323445 1.33377,-0.310058 z M 23.218663,101.78766 c 0.03653,-0.002 0.07226,0.006 0.10542,0.0263 0.132699,0.082 0.172583,0.25986 0.08888,0.39533 -0.248809,0.40258 -0.646113,0.27982 -0.481624,-0.14883 0.06258,-0.16306 0.177723,-0.26606 0.287322,-0.27285 z m 45.438051,10.76007 c 0.07611,1.44471 0.118623,4.73624 0.133842,9.45833 l 0.0016,1.81488 h 5.16e-4 c 0.0046,6.29378 -0.02148,11.44158 -0.05788,11.43858 -0.03638,-0.003 -0.338979,-0.29233 -0.672309,-0.64389 -0.451091,-0.47575 -0.992307,-0.67842 -2.116667,-0.79375 -0.830839,-0.0852 -1.808159,-0.25222 -2.171962,-0.37104 -1.021098,-0.33351 -5.036055,-3.4725 -5.365046,-4.19457 -0.45871,-1.00675 0.154004,-3.29089 1.480013,-5.51905 0.825461,-1.38706 1.291553,-2.57636 1.622124,-4.13928 0.43653,-2.06392 0.55086,-2.28247 1.941999,-3.70623 1.24655,-1.2758 1.696606,-1.55812 2.873727,-1.80248 1.00163,-0.20794 1.545688,-0.49033 1.926497,-1.00045 z m -27.568342,11.66956 c 0.308033,-0.005 0.56361,0.0156 0.727604,0.0677 0.489011,0.1552 0.470956,0.2118 -0.263033,0.82941 -1.32072,1.11132 -1.577877,3.73205 -0.494027,5.03897 0.51744,0.62394 1.907995,1.14201 3.060795,1.14101 1.82045,-0.002 3.775549,-1.79275 3.777549,-3.46077 5.48e-4,-0.37593 0.06763,-0.74975 0.148828,-0.83095 0.260289,-0.2603 1.704287,0.42623 1.704287,0.81028 0,1.11601 -3.161003,5.05669 -4.678783,5.83272 -0.724371,0.37037 -1.030436,0.35915 -2.267045,-0.0822 -2.09545,-0.74778 -4.121753,-2.85903 -5.460132,-5.68905 -0.91231,-1.92906 -0.805757,-2.48313 0.587044,-3.05098 0.833789,-0.33994 2.232816,-0.59023 3.156913,-0.60617 z m 12.799218,5.83118 c 0.137319,-0.0458 0.387361,0.42449 0.555522,1.04489 l 0.305409,1.1281 -2.036054,2.06964 c -1.119838,1.13836 -2.357257,2.23969 -2.750219,2.44739 -1.35061,0.71391 -1.380294,0.37537 -0.08216,-0.94257 0.715219,-0.72614 1.853285,-2.29775 2.529044,-3.4923 0.675759,-1.19455 1.341152,-2.20936 1.478462,-2.25515 z"
       style="fill:#000000;fill-opacity:1;stroke-width:0.26458332" />
  </g>
</svg>
